<svg xmlns="http://www.w3.org/2000/svg" xmlns:xlink="http://www.w3.org/1999/xlink" width="840" height="581.04"><rect width="840" height="581.04" rx="5" ry="5" class="a"/><svg y="0%" x="0%"><circle cx="20" cy="20" r="6" fill="#ff5f58"/><circle cx="40" cy="20" r="6" fill="#ffbd2e"/><circle cx="60" cy="20" r="6" fill="#18c132"/></svg><svg height="521.04" viewBox="0 0 80 52.104" width="800" x="15" xmlns="http://www.w3.org/2000/svg" xmlns:xlink="http://www.w3.org/1999/xlink" y="50"><style>.a{fill:#232731}.g,.i{fill:#6d8eb5;font-weight:700}.i{fill:#cfd6e4}.j{fill:#3b4358}.k{fill:#dfe3ed}.m{fill:#e6c274;font-weight:700;text-decoration:underline}.q{fill:#afd7d7}</style><g font-size="1.67" font-family="Monaco,Consolas,Menlo,'Bitstream Vera Sans Mono','Powerline Symbols',monospace"><defs><symbol id="a"><path fill="transparent" d="M0 0h80v24H0z"/></symbol></defs><path class="a" d="M0 0h80v52.104H0z"/><svg width="80"><svg><use xlink:href="#a"/><text y="1.67" class="g">nord2</text><path fill="#5f5f87" d="M8.016 0h5v2.171h-5z"/><text x="8.016" y="1.67" class="i"></text><text x="16.032" y="1.67" class="j">#434c5e</text><text x="32.064" y="1.67" class="k">Lighter</text><text x="40.08" y="1.67" class="k">shade</text><text x="46.092" y="1.67" class="k">color</text><text x="52.104" y="1.67" class="k">of</text><text x="55.11" y="1.67" class="k">the</text><text x="59.118" y="1.67" class="k">base</text><text x="64.128" y="1.67" class="k">component</text><text x="74.148" y="1.67" class="k">color.</text><text y="3.841" class="g">nord3</text><path fill="#5f8787" d="M8.016 2.171h5v2.171h-5z"/><text x="8.016" y="3.841" class="i"></text><text x="16.032" y="3.841" class="j">#4c566a</text><text x="32.064" y="3.841" class="k">Lighter</text><text x="40.08" y="3.841" class="k">shade</text><text x="46.092" y="3.841" class="k">color</text><text x="52.104" y="3.841" class="k">of</text><text x="55.11" y="3.841" class="k">the</text><text x="59.118" y="3.841" class="k">base</text><text x="64.128" y="3.841" class="k">component</text><text x="74.148" y="3.841" class="k">color.</text><text y="8.183" class="m">Snow</text><text x="5.01" y="8.183" class="m">Storm</text><text y="12.525" class="g">nord4</text><path fill="#d7d7ff" d="M8.016 10.855h5v2.171h-5z"/><text x="8.016" y="12.525" class="i"></text><text x="16.032" y="12.525" class="j">#d8dee9</text><text x="32.064" y="12.525" class="k">Base</text><text x="37.074" y="12.525" class="k">component</text><text x="47.094" y="12.525" class="k">color</text><text x="53.106" y="12.525" class="k">of</text><text x="56.112" y="12.525" class="k">&quot;Snow</text><text x="62.124" y="12.525" class="k">Storm&quot;.</text><text y="14.696" class="g">nord5</text><path fill="#d7ffff" d="M8.016 13.026h5v2.171h-5z"/><text x="8.016" y="14.696" class="i"></text><text x="16.032" y="14.696" class="j">#e5e9f0</text><text x="32.064" y="14.696" class="k">Lighter</text><text x="40.08" y="14.696" class="k">shade</text><text x="46.092" y="14.696" class="k">color</text><text x="52.104" y="14.696" class="k">of</text><text x="55.11" y="14.696" class="k">the</text><text x="59.118" y="14.696" class="k">base</text><text x="64.128" y="14.696" class="k">component</text><text x="74.148" y="14.696" class="k">color.</text><text y="16.867" class="g">nord6</text><path fill="#fff" d="M8.016 15.197h5v2.171h-5z"/><text x="8.016" y="16.867" class="i"></text><text x="16.032" y="16.867" class="j">#eceff4</text><text x="32.064" y="16.867" class="k">Lighter</text><text x="40.08" y="16.867" class="k">shade</text><text x="46.092" y="16.867" class="k">color</text><text x="52.104" y="16.867" class="k">of</text><text x="55.11" y="16.867" class="k">the</text><text x="59.118" y="16.867" class="k">base</text><text x="64.128" y="16.867" class="k">component</text><text x="74.148" y="16.867" class="k">color.</text><text y="21.209" class="m">Frost</text><text y="25.551" class="g">nord7</text><path class="q" d="M8.016 23.881h5v2.171h-5z"/><text x="8.016" y="25.551" class="i"></text><text x="16.032" y="25.551" class="j">#8fbcbb</text><text x="32.064" y="25.551" class="k">Bluish</text><text x="39.078" y="25.551" class="k">core</text><text x="44.088" y="25.551" class="k">color.</text><text y="27.722" class="g">nord8</text><path class="q" d="M8.016 26.052h5v2.171h-5z"/><text x="8.016" y="27.722" class="i"></text><text x="16.032" y="27.722" class="j">#88c0d0</text><text x="32.064" y="27.722" class="k">Bluish</text><text x="39.078" y="27.722" class="k">core</text><text x="44.088" y="27.722" class="k">accent</text><text x="51.102" y="27.722" class="k">color.</text><text y="29.893" class="g">nord9</text><path fill="#afafd7" d="M8.016 28.223h5v2.171h-5z"/><text x="8.016" y="29.893" class="i"></text><text x="16.032" y="29.893" class="j">#81a1c1</text><text x="32.064" y="29.893" class="k">Bluish</text><text x="39.078" y="29.893" class="k">core</text><text x="44.088" y="29.893" class="k">color.</text><text y="32.064" class="g">nord10</text><path fill="#87afaf" d="M8.016 30.394h5v2.171h-5z"/><text x="8.016" y="32.064" class="i"></text><text x="16.032" y="32.064" class="j">#5e81ac</text><text x="32.064" y="32.064" class="k">Bluish</text><text x="39.078" y="32.064" class="k">core</text><text x="44.088" y="32.064" class="k">color.</text><text y="36.406" class="m">Aurora</text><text y="40.748" class="g">nord11</text><path fill="#d78787" d="M8.016 39.078h5v2.171h-5z"/><text x="8.016" y="40.748" class="i"></text><text x="16.032" y="40.748" class="j">#bf616a</text><text x="32.064" y="40.748" class="k">Colorful</text><text x="41.082" y="40.748" class="k">component</text><text x="51.102" y="40.748" class="k">color.</text><text y="42.919" class="g">nord12</text><path fill="#d7af87" d="M8.016 41.249h5v2.171h-5z"/><text x="8.016" y="42.919" class="i"></text><text x="16.032" y="42.919" class="j">#d08770</text><text x="32.064" y="42.919" class="k">Colorful</text><text x="41.082" y="42.919" class="k">component</text><text x="51.102" y="42.919" class="k">color.</text><text y="45.09" class="g">nord13</text><path fill="#ffd7af" d="M8.016 43.42h5v2.171h-5z"/><text x="8.016" y="45.09" class="i"></text><text x="16.032" y="45.09" class="j">#ebcb8b</text><text x="32.064" y="45.09" class="k">Colorful</text><text x="41.082" y="45.09" class="k">component</text><text x="51.102" y="45.09" class="k">color.</text><text y="47.261" class="g">nord14</text><path fill="#afd7af" d="M8.016 45.591h5v2.171h-5z"/><text x="8.016" y="47.261" class="i"></text><text x="16.032" y="47.261" class="j">#a3be8c</text><text x="32.064" y="47.261" class="k">Colorful</text><text x="41.082" y="47.261" class="k">component</text><text x="51.102" y="47.261" class="k">color.</text><text y="49.432" class="g">nord15</text><path fill="#d7afaf" d="M8.016 47.762h5v2.171h-5z"/><text x="8.016" y="49.432" class="i"></text><text x="16.032" y="49.432" class="j">#b48ead</text><text x="32.064" y="49.432" class="k">Colorful</text><text x="41.082" y="49.432" class="k">component</text><text x="51.102" y="49.432" class="k">color.</text></svg></svg></g></svg></svg>